<svg width="900" height="620" viewBox="0 0 900 620" fill="none" xmlns="http://www.w3.org/2000/svg">
  <rect width="900" height="620" rx="24" fill="#241A10"/>
  <rect x="20" y="20" width="860" height="580" rx="20" fill="#463727" stroke="#8F6B36" stroke-opacity="0.35"/>
  <text x="42" y="58" fill="#D5A047" font-family="Segoe UI, Arial, sans-serif" font-size="18" letter-spacing="3">BENCHMARK</text>
  <rect x="42" y="92" width="180" height="86" rx="18" fill="#4F402E"/><text x="62" y="124" fill="#C8B18E" font-family="Segoe UI, Arial, sans-serif" font-size="16">LIVE INPUT TOK/S</text><text x="62" y="157" fill="#3B74E0" font-family="Segoe UI, Arial, sans-serif" font-size="30" font-weight="700">2.8 tok/s</text>
  <rect x="238" y="92" width="180" height="86" rx="18" fill="#4F402E"/><text x="258" y="124" fill="#C8B18E" font-family="Segoe UI, Arial, sans-serif" font-size="16">LIVE OUTPUT TOK/S</text><text x="258" y="157" fill="#E14F43" font-family="Segoe UI, Arial, sans-serif" font-size="30" font-weight="700">18.9 tok/s</text>
  <rect x="434" y="92" width="180" height="86" rx="18" fill="#4F402E"/><text x="454" y="124" fill="#C8B18E" font-family="Segoe UI, Arial, sans-serif" font-size="16">LIVE TOTAL TOK/S</text><text x="454" y="157" fill="#E0B13C" font-family="Segoe UI, Arial, sans-serif" font-size="30" font-weight="700">21.7 tok/s</text>
  <rect x="42" y="208" width="776" height="316" rx="20" fill="#403222" stroke="#765F3F"/>
  <text x="66" y="244" fill="#F5EFE8" font-family="Segoe UI, Arial, sans-serif" font-size="18" font-weight="700">live | poslednji throughput: 21.7 tok/s | pre 3s</text>
  <line x1="96" y1="470" x2="760" y2="470" stroke="#8A7860" stroke-width="2"/>
  <line x1="96" y1="470" x2="96" y2="280" stroke="#8A7860" stroke-width="2"/>
  <path d="M96 446C126 440 160 432 192 420C228 407 258 394 288 370C322 344 354 330 384 318C420 304 452 296 482 300C514 304 548 320 578 336C614 355 642 372 674 382C706 392 734 398 760 402" stroke="#3B74E0" stroke-width="4" stroke-linecap="round"/>
  <path d="M96 420C126 414 160 408 192 398C228 386 258 378 288 370C322 362 354 350 384 342C420 332 452 326 482 330C514 334 548 344 578 356C614 370 642 382 674 390C706 398 734 404 760 408" stroke="#E14F43" stroke-width="4" stroke-linecap="round"/>
  <path d="M96 418C126 413 160 406 192 395C228 383 258 374 288 366C322 358 354 346 384 338C420 328 452 322 482 326C514 330 548 340 578 352C614 366 642 378 674 387C706 396 734 402 760 406" stroke="#E0B13C" stroke-width="3" stroke-dasharray="10 8" stroke-linecap="round"/>
  <circle cx="288" cy="370" r="5" fill="#3B74E0"/>
  <circle cx="482" cy="330" r="5" fill="#E14F43"/>
  <circle cx="674" cy="387" r="5" fill="#E0B13C"/>
  <line x1="96" y1="294" x2="760" y2="294" stroke="#B2A48F" stroke-width="3" stroke-dasharray="10 10" stroke-opacity="0.5"/>
  <text x="782" y="320" fill="#EBDDC8" font-family="Segoe UI, Arial, sans-serif" font-size="16">Legenda</text>
  <circle cx="794" cy="350" r="8" fill="#3B74E0"/><text x="812" y="356" fill="#EBDDC8" font-family="Segoe UI, Arial, sans-serif" font-size="16">Input</text>
  <circle cx="794" cy="386" r="8" fill="#E14F43"/><text x="812" y="392" fill="#EBDDC8" font-family="Segoe UI, Arial, sans-serif" font-size="16">Output</text>
  <circle cx="794" cy="422" r="8" fill="#E0B13C"/><text x="812" y="428" fill="#EBDDC8" font-family="Segoe UI, Arial, sans-serif" font-size="16">Total</text>
</svg>
